<svg width="139" height="79" viewBox="0 0 139 79" fill="none" xmlns="http://www.w3.org/2000/svg"><g clip-path="url(#clip0_2_1853)"><path d="M109.809 22.9076V30.6121H117.807V52.8704H126.665V30.6121H134.841V22.9076H109.809Z" fill="#26A9E1"></path><mask id="mask0_2_1853" style="mask-type:luminance" maskUnits="userSpaceOnUse" x="0" y="0" width="139" height="79"><path d="M0 0H139V79H0V0Z" fill="white"></path></mask><g mask="url(#mask0_2_1853)"><path d="M100.198 22.9076V41.2771C100.198 44.0954 98.3689 45.628 96.2164 45.628C94.0639 45.628 92.3065 44.0954 92.3065 41.2771V22.9076H83.2695V26.514C84.2763 28.4001 84.9494 30.464 85.2354 32.6128C85.3446 33.3159 85.3982 34.098 85.3982 34.9986C85.3982 35.6819 85.3426 36.2863 85.2215 36.8946C84.9395 38.5082 84.3001 40.3232 83.3073 42.3357C83.8156 49.4714 89.4769 53.3325 96.2164 53.3325C103.246 53.3325 109.235 49.0882 109.235 41.2771V22.9076H100.198Z" fill="#26A9E1"></path><path d="M67.2752 46.8408C60.6767 46.8408 55.3331 41.5616 55.3331 34.9987C55.3331 28.4357 60.6767 23.121 67.2752 23.121C73.838 23.121 79.1815 28.4357 79.1815 34.9987C79.1815 41.5616 73.838 46.8408 67.2752 46.8408ZM83.2701 32.8953C82.2296 25.0111 75.4881 18.9123 67.2752 18.9123C62.0746 18.9123 57.4122 21.3731 54.4713 25.1888C52.8947 27.2586 51.7827 29.6839 51.316 32.3601C51.173 33.2152 51.1016 34.1079 51.1016 34.9987C51.1016 43.8802 67.2752 60.1819 67.2752 60.1819C67.2752 60.1819 81.6915 45.6281 83.2701 36.5332C83.3774 35.998 83.4131 35.4983 83.4131 34.9987C83.4131 34.2857 83.3774 33.5727 83.2701 32.8953Z" fill="#62C3A7"></path><path d="M51.614 43.1139C49.6898 45.0652 47.4559 45.628 45.5059 45.628C40.8077 45.628 37.7596 42.2034 37.7596 37.888C37.7596 33.5726 40.8077 30.148 45.5059 30.148C46.7907 30.148 48.1966 30.385 49.5468 31.094C50.1128 28.5976 51.189 26.277 52.7597 24.1716C50.6827 23.0933 48.3554 22.4435 45.5059 22.4435C35.3569 22.4435 28.7227 29.5417 28.7227 37.888C28.7227 46.2344 35.3569 53.3325 45.5059 53.3325C49.7951 53.3325 52.9146 51.8809 55.7582 49.659C54.0485 47.2989 52.6664 45.1165 51.614 43.1139Z" fill="#26A9E1"></path><path d="M20.1506 34.57L16.8166 33.4285C14.95 32.7866 14.3404 32.0025 14.3404 31.1829C14.3404 29.8972 15.7403 29.2908 17.2098 29.2908C19.3265 29.2908 20.1863 30.6121 20.7959 32.2889L28.0418 30.2191C26.3202 25.2263 22.6983 22.4435 17.031 22.4435C10.4325 22.4435 5.55361 26.1526 5.55361 31.9314C5.62708 38.3166 12.9424 40.2422 14.4119 40.7063L17.7836 41.9901C19.9361 42.6675 20.3293 43.6313 20.3293 44.3443C20.3293 45.8078 18.8599 46.4852 16.8166 46.4852C13.838 46.4852 12.0806 45.0217 11.471 42.2765L4.19141 43.9513C5.12469 49.9809 9.82289 53.3325 16.8166 53.3325C23.3436 53.3325 29.1161 50.4075 29.1161 44.0599C28.9731 39.8136 26.8583 36.8887 20.1506 34.57Z" fill="#26A9E1"></path></g></g><defs><clipPath id="clip0_2_1853"><rect width="139" height="79" fill="white"></rect></clipPath></defs></svg>
